HIERARCHY
ROOT hip
{
  OFFSET -80.3603 71.2407 -269.828
  CHANNELS 6 Xposition Yposition Zposition Zrotation Xrotation Yrotation
  JOINT abdomen
  {
    OFFSET 0 20.6881 -0.73152
    CHANNELS 3 Zrotation Xrotation Yrotation
    JOINT chest
    {
      OFFSET 0 11.7043 -0.48768
      CHANNELS 3 Zrotation Xrotation Yrotation
      JOINT neck
      {
        OFFSET 0 22.1894 -2.19456
        CHANNELS 3 Zrotation Xrotation Yrotation
        JOINT head
        {
          OFFSET -0.24384 7.07133 1.2192
          CHANNELS 3 Zrotation Xrotation Yrotation
          JOINT leftEye
          {
            OFFSET 4.14528 8.04674 8.04672
            CHANNELS 3 Zrotation Xrotation Yrotation
            End Site
            {
              OFFSET 1 0 0
            }
          }
          JOINT rightEye
          {
            OFFSET -3.6576 8.04674 8.04672
            CHANNELS 3 Zrotation Xrotation Yrotation
            End Site
            {
              OFFSET 1 0 0
            }
          }
        }
      }
      JOINT rCollar
      {
        OFFSET -2.68224 19.2634 -4.8768
        CHANNELS 3 Zrotation Xrotation Yrotation
        JOINT rShldr
        {
          OFFSET -8.77824 -1.95073 1.46304
          CHANNELS 3 Zrotation Xrotation Yrotation
          JOINT rForeArm
          {
            OFFSET -28.1742 -1.7115 0.48768
            CHANNELS 3 Zrotation Xrotation Yrotation
            JOINT rHand
            {
              OFFSET -22.5879 0.773209 7.07136
              CHANNELS 3 Zrotation Xrotation Yrotation
              JOINT rThumb1
              {
                OFFSET -1.2192 -0.487915 3.41376
                CHANNELS 3 Zrotation Xrotation Yrotation
                JOINT rThumb2
                {
                  OFFSET -3.37035 -0.52449 3.41376
                  CHANNELS 3 Zrotation Xrotation Yrotation
                  End Site
                  {
                    OFFSET -1.78271 -1.18214 1.43049
                  }
                }
              }
              JOINT rIndex1
              {
                OFFSET -7.75947 0.938293 5.60832
                CHANNELS 3 Zrotation Xrotation Yrotation
                JOINT rIndex2
                {
                  OFFSET -2.54057 -0.884171 1.56538
                  CHANNELS 3 Zrotation Xrotation Yrotation
                  End Site
                  {
                    OFFSET -1.62519 -0.234802 1.16502
                  }
                }
              }
              JOINT rMid1
              {
                OFFSET -8.24714 1.18213 3.41376
                CHANNELS 3 Zrotation Xrotation Yrotation
                JOINT rMid2
                {
                  OFFSET -3.10165 -0.590103 1.0647
                  CHANNELS 3 Zrotation Xrotation Yrotation
                  End Site
                  {
                    OFFSET -2.48547 -0.328903 0.83742
                  }
                }
              }
              JOINT rRing1
              {
                OFFSET -8.82822 0.546677 1.51678
                CHANNELS 3 Zrotation Xrotation Yrotation
                JOINT rRing2
                {
                  OFFSET -2.60934 -0.819778 -0.0198488
                  CHANNELS 3 Zrotation Xrotation Yrotation
                  End Site
                  {
                    OFFSET -2.33842 -0.294052 0.168128
                  }
                }
              }
              JOINT rPinky1
              {
                OFFSET -8.27202 -0.0477905 -0.4584
                CHANNELS 3 Zrotation Xrotation Yrotation
                JOINT rPinky2
                {
                  OFFSET -1.82734 -0.647385 -0.700984
                  CHANNELS 3 Zrotation Xrotation Yrotation
                  End Site
                  {
                    OFFSET -1.69225 -0.51767 -0.607171
                  }
                }
              }
            }
          }
        }
      }
      JOINT lCollar
      {
        OFFSET 2.68224 19.2634 -4.8768
        CHANNELS 3 Zrotation Xrotation Yrotation
        JOINT lShldr
        {
          OFFSET 8.77824 -1.95073 1.46304
          CHANNELS 3 Zrotation Xrotation Yrotation
          JOINT lForeArm
          {
            OFFSET 28.1742 -1.7115 0.48768
            CHANNELS 3 Zrotation Xrotation Yrotation
            JOINT lHand
            {
              OFFSET 22.5879 0.773209 7.07136
              CHANNELS 3 Zrotation Xrotation Yrotation
              JOINT lThumb1
              {
                OFFSET 1.2192 -0.487915 3.41376
                CHANNELS 3 Zrotation Xrotation Yrotation
                JOINT lThumb2
                {
                  OFFSET 3.37035 -0.52449 3.41376
                  CHANNELS 3 Zrotation Xrotation Yrotation
                  End Site
                  {
                    OFFSET 1.78271 -1.18214 1.43049
                  }
                }
              }
              JOINT lIndex1
              {
                OFFSET 7.75947 0.938293 5.60832
                CHANNELS 3 Zrotation Xrotation Yrotation
                JOINT lIndex2
                {
                  OFFSET 2.54057 -0.884171 1.56538
                  CHANNELS 3 Zrotation Xrotation Yrotation
                  End Site
                  {
                    OFFSET 1.62519 -0.234802 1.16502
                  }
                }
              }
              JOINT lMid1
              {
                OFFSET 8.24714 1.18213 3.41376
                CHANNELS 3 Zrotation Xrotation Yrotation
                JOINT lMid2
                {
                  OFFSET 3.10165 -0.590103 1.0647
                  CHANNELS 3 Zrotation Xrotation Yrotation
                  End Site
                  {
                    OFFSET 2.48547 -0.328903 0.83742
                  }
                }
              }
              JOINT lRing1
              {
                OFFSET 8.82822 0.546677 1.51678
                CHANNELS 3 Zrotation Xrotation Yrotation
                JOINT lRing2
                {
                  OFFSET 2.60934 -0.819778 -0.0198488
                  CHANNELS 3 Zrotation Xrotation Yrotation
                  End Site
                  {
                    OFFSET 2.33842 -0.294052 0.168128
                  }
                }
              }
              JOINT lPinky1
              {
                OFFSET 8.27202 -0.0477905 -0.4584
                CHANNELS 3 Zrotation Xrotation Yrotation
                JOINT lPinky2
                {
                  OFFSET 1.82734 -0.647385 -0.700984
                  CHANNELS 3 Zrotation Xrotation Yrotation
                  End Site
                  {
                    OFFSET 1.69225 -0.51767 -0.607171
                  }
                }
              }
            }
          }
        }
      }
    }
  }
  JOINT rButtock
  {
    OFFSET -8.77824 4.35084 1.2192
    CHANNELS 3 Zrotation Xrotation Yrotation
    JOINT rThigh
    {
      OFFSET 0 -1.70687 -2.19456
      CHANNELS 3 Zrotation Xrotation Yrotation
      JOINT rShin
      {
        OFFSET 0 -36.8199 0.73152
        CHANNELS 3 Zrotation Xrotation Yrotation
        JOINT rFoot
        {
          OFFSET 0.73152 -45.1104 -5.12064
          CHANNELS 3 Zrotation Xrotation Yrotation
          End Site
          {
            OFFSET -1.1221 -3.69964 12.103
          }
        }
      }
    }
  }
  JOINT lButtock
  {
    OFFSET 8.77824 4.35084 1.2192
    CHANNELS 3 Zrotation Xrotation Yrotation
    JOINT lThigh
    {
      OFFSET 0 -1.70687 -2.19456
      CHANNELS 3 Zrotation Xrotation Yrotation
      JOINT lShin
      {
        OFFSET 0 -36.8199 0.73152
        CHANNELS 3 Zrotation Xrotation Yrotation
        JOINT lFoot
        {
          OFFSET -0.73152 -45.1104 -5.12064
          CHANNELS 3 Zrotation Xrotation Yrotation
          End Site
          {
            OFFSET 1.1221 -3.69964 12.103
          }
        }
      }
    }
  }
}
MOTION
Frames:	4
Frame Time:	0.00833333
-73.9266 41.5817 -131.878 1.51873 17.8161 85.0279 20.2857 38.1826 -20.2587 3.57139 -10.8183 -3.60322 -13.2254 1.88039 -12.7769 22.1687 -8.09205 -20.8408 -0 0 0 -0 0 0 4.78383e-013 -2.5431e-012 2.17121e-013 22.5885 9.8424 21.4082 -27.6836 -28.9743 65.6098 -0.00285392 1.55009 0.217902 -4.3267e-009 2.3684e-009 2.44997e-009 -7.47379e-009 4.11383e-009 4.25108e-009 -4.32669e-009 2.3684e-009 2.44996e-009 7.73091 5.47488 0.417314 -4.3267e-009 2.3684e-009 2.44998e-009 2.90554 0.965183 0.102902 -4.32669e-009 2.3684e-009 2.44998e-009 10.2786 0.731801 0.0259123 -4.3267e-009 2.3684e-009 2.44998e-009 2.22167 -0.733487 -0.20892 4.78213e-013 -2.54309e-012 2.16926e-013 -67.6915 8.96017 -11.6894 18.1097 -10.802 -34.2738 1.34359 31.0106 -4.84532 -3.92474e-010 4.71184e-010 -1.88687e-009 -7.24443e-010 8.17535e-010 -3.24084e-009 -3.92475e-010 4.71185e-010 -1.88686e-009 -7.73091 5.47488 -0.417314 -3.92473e-010 4.71185e-010 -1.88687e-009 -2.90554 0.965183 -0.102902 -3.92475e-010 4.71186e-010 -1.88687e-009 -10.2786 0.731801 -0.0259123 -3.92464e-010 4.71191e-010 -1.88688e-009 -2.22167 -0.733487 0.20892 -2.03217e-016 0 -3.88251e-019 -103.486 -66.6384 -118.038 -175.4 70.4868 174.86 0.723259 -2.0935 4.00773 2.03217e-016 0 3.88251e-019 65.9213 -30.3805 58.0245 177.771 47.4516 179.407 -9.96077 -1.08747 -29.1818 
-74.0049 42.7321 -132.353 1.27566 17.1688 85.5628 19.7175 37.9197 -19.7956 3.56966 -10.8253 -3.53917 -13.088 1.962 -12.8946 22.2294 -8.465 -21.063 -0 0 0 -0 0 0 9.96589e-014 -4.13136e-013 1.08307e-014 24.1976 10.2588 19.9961 -27.7314 -29.1945 65.957 -0.00202272 1.32583 0.186363 -1.38453e-009 1.35091e-009 1.24407e-009 -2.39059e-009 2.34125e-009 2.157e-009 -1.38453e-009 1.35091e-009 1.24406e-009 7.73091 5.47488 0.417314 -1.38453e-009 1.35091e-009 1.24407e-009 2.90554 0.965183 0.102902 -1.38453e-009 1.35091e-009 1.24407e-009 10.2786 0.731801 0.0259123 -1.38454e-009 1.35091e-009 1.24408e-009 2.22167 -0.733487 -0.20892 9.94678e-014 -4.13127e-013 1.06412e-014 -67.6783 10.0068 -11.7401 18.3988 -11.1197 -34.9255 1.26047 30.1566 -4.68259 -1.95699e-010 1.32377e-011 -6.48852e-010 -3.56461e-010 2.31169e-011 -1.1138e-009 -1.95699e-010 1.32381e-011 -6.48849e-010 -7.73091 5.47488 -0.417314 -1.95699e-010 1.32387e-011 -6.48856e-010 -2.90554 0.965183 -0.102902 -1.95702e-010 1.32387e-011 -6.48859e-010 -10.2786 0.731801 -0.0259123 -1.9569e-010 1.32419e-011 -6.48869e-010 -2.22167 -0.733487 0.20892 -2.03217e-016 0 -3.88251e-019 -100.372 -67.6067 -115.477 -175.17 71.7955 174.668 0.637034 -2.46387 3.77764 2.03217e-016 0 3.88251e-019 62.7747 -32.4046 56.669 177.697 48.8518 179.726 -9.31975 -2.31661 -27.2256 
-74.0522 43.9018 -132.802 1.03847 16.5182 86.1747 19.0696 37.7093 -19.2839 3.57538 -10.8296 -3.466 -12.981 2.04658 -13.0035 22.3163 -8.8207 -21.2631 -0 0 0 -0 0 0 -2.78938e-013 1.70879e-012 -1.91284e-013 25.9076 10.6697 18.5982 -27.7738 -29.3987 66.2839 -0.00148452 1.12507 0.158138 1.65644e-009 2.72839e-010 -8.46307e-011 2.86324e-009 4.63482e-010 -1.49801e-010 1.65645e-009 2.72839e-010 -8.46353e-011 7.73091 5.47488 0.417314 1.65644e-009 2.72838e-010 -8.46274e-011 2.90554 0.965183 0.102902 1.65644e-009 2.72838e-010 -8.46229e-011 10.2786 0.731801 0.0259123 1.65644e-009 2.72841e-010 -8.46125e-011 2.22167 -0.733487 -0.20892 -2.79139e-013 1.70879e-012 -1.91472e-013 -67.6814 10.9045 -11.8377 18.6574 -11.4113 -35.5115 1.17653 29.2402 -4.51181 -1.54787e-011 -4.4999e-010 6.43061e-010 -1.55329e-011 -7.8043e-010 1.10681e-009 -1.54775e-011 -4.49989e-010 6.43066e-010 -7.73091 5.47488 -0.417314 -1.54795e-011 -4.49989e-010 6.43057e-010 -2.90554 0.965183 -0.102902 -1.54848e-011 -4.49989e-010 6.43054e-010 -10.2786 0.731801 -0.0259123 -1.54708e-011 -4.49988e-010 6.43044e-010 -2.22167 -0.733487 0.20892 -2.03217e-016 0 -3.88251e-019 -96.8265 -68.54 -112.473 -174.874 73.2287 174.406 0.569694 -2.79116 3.6258 2.03217e-016 0 3.88251e-019 59.4927 -34.2517 55.0982 177.617 50.3487 -179.97 -8.62371 -3.46918 -25.2189 
-74.0708 45.0987 -133.236 0.742595 15.9099 86.9019 18.3998 37.4507 -18.7494 3.5644 -10.8216 -3.39036 -12.883 2.11069 -13.0848 22.3571 -9.17286 -21.4026 -0 0 0 -0 0 0 -5.03192e-013 2.94619e-012 -2.98873e-013 27.6787 11.0938 17.3029 -27.8047 -29.553 66.5358 -0.00130577 1.03176 0.14502 3.50638e-009 -3.88922e-010 -9.87915e-010 6.05915e-009 -6.89099e-010 -1.71734e-009 3.50639e-009 -3.88923e-010 -9.87918e-010 7.73091 5.47488 0.417314 3.50638e-009 -3.88923e-010 -9.87912e-010 2.90554 0.965183 0.102902 3.50638e-009 -3.88923e-010 -9.87907e-010 10.2786 0.731801 0.0259123 3.50638e-009 -3.88919e-010 -9.87896e-010 2.22167 -0.733487 -0.20892 -5.03387e-013 2.94618e-012 -2.99072e-013 -67.7312 11.6828 -11.8827 18.8935 -11.6806 -36.0568 1.10336 28.401 -4.3583 7.79125e-011 -7.30138e-010 1.46625e-009 1.64815e-010 -1.26647e-009 2.52269e-009 7.79141e-011 -7.30137e-010 1.46625e-009 -7.73091 5.47488 -0.417314 7.79112e-011 -7.30136e-010 1.46624e-009 -2.90554 0.965183 -0.102902 7.79046e-011 -7.30138e-010 1.46624e-009 -10.2786 0.731801 -0.0259123 7.7919e-011 -7.30138e-010 1.46623e-009 -2.22167 -0.733487 0.20892 -2.03217e-016 0 -3.88251e-019 -93.0292 -69.398 -109.222 -174.487 74.7776 174.048 0.528906 -3.01744 3.59108 2.03217e-016 0 3.88251e-019 56.1463 -35.8971 53.4596 177.53 51.9514 -179.683 -7.91845 -4.65943 -23.1654 
